<?xml version="1.0" encoding="UTF-8" standalone="no"?>
<!-- Created with Inkscape (http://www.inkscape.org/) -->

<svg
   version="1.1"
   id="svg5956"
   xml:space="preserve"
   width="721.04492"
   height="203.79556"
   viewBox="0 0 721.04492 203.79557"
   sodipodi:docname="database2_169_darkblue.svg"
   inkscape:version="1.1 (1:1.1+202105261517+ce6663b3b7)"
   xmlns:inkscape="http://www.inkscape.org/namespaces/inkscape"
   xmlns:sodipodi="http://sodipodi.sourceforge.net/DTD/sodipodi-0.dtd"
   xmlns:xlink="http://www.w3.org/1999/xlink"
   xmlns="http://www.w3.org/2000/svg"
   xmlns:svg="http://www.w3.org/2000/svg"><defs
     id="defs5960"><linearGradient
       inkscape:collect="always"
       id="linearGradient14021"><stop
         style="stop-color:#515151;stop-opacity:0"
         offset="0"
         id="stop14017" /><stop
         style="stop-color:#515151;stop-opacity:0"
         offset="0.58193505"
         id="stop14345" /><stop
         style="stop-color:#515151;stop-opacity:0.74505287"
         offset="0.61204928"
         id="stop14475" /><stop
         style="stop-color:#515151;stop-opacity:0.74709821"
         offset="1"
         id="stop14019" /></linearGradient><linearGradient
       inkscape:collect="always"
       id="linearGradient12398"><stop
         style="stop-color:#515151;stop-opacity:0.74924493"
         offset="0"
         id="stop12390" /><stop
         style="stop-color:#515151;stop-opacity:0.74983865"
         offset="0.38844982"
         id="stop12392" /><stop
         style="stop-color:#515151;stop-opacity:0"
         offset="0.42497504"
         id="stop12394" /><stop
         style="stop-color:#515151;stop-opacity:0"
         offset="1"
         id="stop12396" /></linearGradient><clipPath
       clipPathUnits="userSpaceOnUse"
       id="clipPath5972"><path
         d="M 0,0 H 595 V 841 H 0 Z"
         id="path5970" /></clipPath><clipPath
       clipPathUnits="userSpaceOnUse"
       id="clipPath6120"><path
         d="M 62.16,415.199 H 126 V 422 H 62.16 Z"
         id="path6118" /></clipPath><clipPath
       clipPathUnits="userSpaceOnUse"
       id="clipPath6138"><path
         d="M 62.16,429 H 93 v 4 H 62.16 Z"
         id="path6136" /></clipPath><clipPath
       clipPathUnits="userSpaceOnUse"
       id="clipPath6150"><path
         d="M 62.16,434 H 93 v 5 H 62.16 Z"
         id="path6148" /></clipPath><clipPath
       clipPathUnits="userSpaceOnUse"
       id="clipPath6168"><path
         d="M 70.32,461 H 114 v 6 H 70.32 Z"
         id="path6166" /></clipPath><clipPath
       clipPathUnits="userSpaceOnUse"
       id="clipPath6186"><path
         d="M 50.16,483 H 134 v 7 H 50.16 Z"
         id="path6184" /></clipPath><clipPath
       clipPathUnits="userSpaceOnUse"
       id="clipPath6212"><path
         d="m 144,399.359 h 56 V 405 h -56 z"
         id="path6210" /></clipPath><clipPath
       clipPathUnits="userSpaceOnUse"
       id="clipPath6254"><path
         d="M 134.16,356 H 210 v 6 h -75.84 z"
         id="path6252" /></clipPath><clipPath
       clipPathUnits="userSpaceOnUse"
       id="clipPath6280"><path
         d="m 217,365.281 h 31 V 371 h -31 z"
         id="path6278" /></clipPath><clipPath
       clipPathUnits="userSpaceOnUse"
       id="clipPath6336"><path
         d="m 318,365.281 h 32 V 371 h -32 z"
         id="path6334" /></clipPath><clipPath
       clipPathUnits="userSpaceOnUse"
       id="clipPath6354"><path
         d="M 311.039,484 H 359 v 5 h -47.961 z"
         id="path6352" /></clipPath><clipPath
       clipPathUnits="userSpaceOnUse"
       id="clipPath6380"><path
         d="m 375,427.199 h 20 V 432 h -20 z"
         id="path6378" /></clipPath><clipPath
       clipPathUnits="userSpaceOnUse"
       id="clipPath6418"><path
         d="M 373.68,491 H 408 v 5 h -34.32 z"
         id="path6416" /></clipPath><clipPath
       clipPathUnits="userSpaceOnUse"
       id="clipPath6452"><path
         d="M 428.398,447 H 572 v 6 H 428.398 Z"
         id="path6450" /></clipPath><linearGradient
       inkscape:collect="always"
       xlink:href="#linearGradient12398"
       id="linearGradient12388"
       gradientUnits="userSpaceOnUse"
       x1="55.658478"
       y1="570.04629"
       x2="775.69336"
       y2="570.04626" /><linearGradient
       inkscape:collect="always"
       xlink:href="#linearGradient14021"
       id="linearGradient14023"
       x1="55.658478"
       y1="570.04629"
       x2="775.69333"
       y2="570.04629"
       gradientUnits="userSpaceOnUse" /></defs><sodipodi:namedview
     id="namedview5958"
     pagecolor="#ffffff"
     bordercolor="#666666"
     borderopacity="1.0"
     inkscape:pageshadow="2"
     inkscape:pageopacity="0.0"
     inkscape:pagecheckerboard="0"
     showgrid="false"
     inkscape:zoom="1.6630104"
     inkscape:cx="335.23543"
     inkscape:cy="40.288383"
     inkscape:window-width="1920"
     inkscape:window-height="1029"
     inkscape:window-x="1366"
     inkscape:window-y="0"
     inkscape:window-maximized="1"
     inkscape:current-layer="g5962"
     fit-margin-top="0"
     fit-margin-left="0"
     fit-margin-right="0"
     fit-margin-bottom="0"
     showguides="true"
     inkscape:guide-bbox="true"><sodipodi:guide
       position="-40.039913,-45.678664"
       orientation="0,-1"
       id="guide8112" /></sodipodi:namedview><g
     inkscape:groupmode="layer"
     id="layer4"
     inkscape:label="namespaces"
     transform="translate(-55.148398,-468.15134)"><rect
       style="opacity:0.95;fill:#adbde3;fill-opacity:1;stroke:#000000;stroke-width:0.999997;stroke-miterlimit:4;stroke-dasharray:4.00001, 4.00001;stroke-dashoffset:0;stroke-opacity:0.67042"
       id="rect14072"
       width="720.03485"
       height="202.7899"
       x="55.658478"
       y="468.65134"
       ry="8.4914112"
       rx="8.4914103" /><rect
       style="opacity:0.95;fill:#ebd4a7;fill-opacity:1;stroke:#000000;stroke-width:0.977472;stroke-miterlimit:4;stroke-dasharray:3.90991, 3.90991;stroke-dashoffset:0;stroke-opacity:0.67042"
       id="rect14072-3"
       width="125.75692"
       height="56.344681"
       x="60.380714"
       y="605.65302"
       ry="3.8057325"
       rx="3.8057327" /><rect
       style="opacity:0.95;fill:#c68d84;fill-opacity:1;stroke:#000000;stroke-width:0.999994;stroke-miterlimit:4;stroke-dasharray:4, 4;stroke-dashoffset:0;stroke-opacity:0.67042"
       id="rect14072-3-6"
       width="205.77531"
       height="98.141808"
       x="565.1828"
       y="554.16718"
       ry="3.1469343"
       rx="3.1469345" /></g><g
     inkscape:groupmode="layer"
     id="layer3"
     inkscape:label="relations"
     style="display:inline"
     transform="translate(-55.148398,-468.15134)"><path
       d="m 500.879,445.68 v -13.2"
       style="fill:#ffffff;stroke:#000000;stroke-width:0.399195;stroke-linecap:round;stroke-linejoin:round;stroke-miterlimit:10;stroke-dasharray:0.96, 0.96;stroke-dashoffset:0;stroke-opacity:1"
       id="path5980"
       transform="matrix(1.3333333,0,0,1.3333333,0,4.2729659e-5)" /><path
       d="m 382.32,438 -41.039,44.641"
       style="fill:#ffffff;stroke:#000000;stroke-width:0.399195;stroke-linecap:round;stroke-linejoin:round;stroke-miterlimit:10;stroke-dasharray:none;stroke-opacity:1"
       id="path5984"
       transform="matrix(1.3333333,0,0,1.3333333,0,4.2729659e-5)" /><path
       d="m 341.281,482.641 1.199,-4.321 4.079,-1.441 -1.2,4.32 z"
       style="fill:#ffffff;fill-opacity:1;fill-rule:evenodd;stroke:#000000;stroke-width:0.399195;stroke-linecap:round;stroke-linejoin:round;stroke-miterlimit:10;stroke-dasharray:none;stroke-opacity:1"
       id="path5988"
       transform="matrix(1.3333333,0,0,1.3333333,0,4.2729659e-5)" /><path
       d="M 317.281,370.078 H 251.762"
       style="fill:#ffffff;stroke:#000000;stroke-width:0.399195;stroke-linecap:round;stroke-linejoin:round;stroke-miterlimit:10;stroke-dasharray:none;stroke-opacity:1"
       id="path5992"
       transform="matrix(1.3333333,0,0,1.3333333,0,4.2729659e-5)" /><path
       d="m 251.762,370.078 4.078,-1.918 4.082,1.918 -4.082,2.16 z"
       style="fill:#ffffff;fill-opacity:1;fill-rule:evenodd;stroke:#000000;stroke-width:0.399195;stroke-linecap:round;stroke-linejoin:round;stroke-miterlimit:10;stroke-dasharray:none;stroke-opacity:1"
       id="path5996"
       transform="matrix(1.3333333,0,0,1.3333333,0,4.2729659e-5)" /><path
       d="M 234,482.641 V 376.078"
       style="fill:#ffffff;stroke:#000000;stroke-width:0.399195;stroke-linecap:round;stroke-linejoin:round;stroke-miterlimit:10;stroke-dasharray:none;stroke-opacity:1"
       id="path6000"
       transform="matrix(1.3333333,0,0,1.3333333,0,4.2729659e-5)" /><path
       d="m 234,376.078 1.922,4.082 -1.922,4.078 -2.16,-4.078 z"
       style="fill:#ffffff;fill-opacity:1;fill-rule:evenodd;stroke:#000000;stroke-width:0.399195;stroke-linecap:round;stroke-linejoin:round;stroke-miterlimit:10;stroke-dasharray:none;stroke-opacity:1"
       id="path6004"
       transform="matrix(1.3333333,0,0,1.3333333,0,4.2729659e-5)" /><path
       d="M 310.078,488.398 H 255.84"
       style="fill:#ffffff;stroke:#000000;stroke-width:0.399195;stroke-linecap:round;stroke-linejoin:round;stroke-miterlimit:10;stroke-dasharray:none;stroke-opacity:1"
       id="path6008"
       transform="matrix(1.3333333,0,0,1.3333333,0,4.2729659e-5)" /><path
       d="m 255.84,488.398 4.082,-2.16 3.84,2.16 -3.84,1.922 z"
       style="fill:#ffffff;fill-opacity:1;fill-rule:evenodd;stroke:#000000;stroke-width:0.399195;stroke-linecap:round;stroke-linejoin:round;stroke-miterlimit:10;stroke-dasharray:none;stroke-opacity:1"
       id="path6012"
       transform="matrix(1.3333333,0,0,1.3333333,0,4.2729659e-5)" /><path
       d="M 380.398,412.801 341.281,376.078"
       style="fill:#ffffff;stroke:#000000;stroke-width:0.399195;stroke-linecap:round;stroke-linejoin:round;stroke-miterlimit:10;stroke-dasharray:none;stroke-opacity:1"
       id="path6016"
       transform="matrix(1.3333333,0,0,1.3333333,0,4.2729659e-5)" /><path
       d="m 341.281,376.078 4.321,1.203 1.679,4.078 -4.32,-1.199 z"
       style="fill:#ffffff;fill-opacity:1;fill-rule:evenodd;stroke:#000000;stroke-width:0.399195;stroke-linecap:round;stroke-linejoin:round;stroke-miterlimit:10;stroke-dasharray:none;stroke-opacity:1"
       id="path6020"
       transform="matrix(1.3333333,0,0,1.3333333,0,4.2729659e-5)" /><path
       d="M 447.121,425.762 H 414"
       style="fill:#ffffff;stroke:#000000;stroke-width:0.399195;stroke-linecap:round;stroke-linejoin:round;stroke-miterlimit:10;stroke-dasharray:none;stroke-opacity:1"
       id="path6024"
       transform="matrix(1.3333333,0,0,1.3333333,0,4.2729659e-5)" /><path
       d="m 414,425.762 3.84,-4.082 -0.238,7.922 z"
       style="fill:#ffffff;fill-opacity:1;fill-rule:evenodd;stroke:#000000;stroke-width:0.399195;stroke-linecap:round;stroke-linejoin:round;stroke-miterlimit:10;stroke-dasharray:none;stroke-opacity:1"
       id="path6028"
       transform="matrix(1.3333333,0,0,1.3333333,0,4.2729659e-5)" /><path
       d="m 93.359,471.602 v 10.32"
       style="fill:#ffffff;stroke:#000000;stroke-width:0.399195;stroke-linecap:round;stroke-linejoin:round;stroke-miterlimit:10;stroke-dasharray:0.96, 0.96;stroke-dashoffset:0;stroke-opacity:1"
       id="path6032"
       transform="matrix(1.3333333,0,0,1.3333333,0,4.2729659e-5)" /><path
       d="m 239.039,376.078 30,32.883"
       style="fill:#ffffff;stroke:#000000;stroke-width:0.399195;stroke-linecap:round;stroke-linejoin:round;stroke-miterlimit:10;stroke-dasharray:none;stroke-opacity:1"
       id="path6036"
       transform="matrix(1.3333333,0,0,1.3333333,0,4.2729659e-5)" /><path
       d="m 269.039,408.961 -6,-0.481 6,-5.281 z"
       style="fill:#ffffff;fill-opacity:1;fill-rule:evenodd;stroke:#000000;stroke-width:0.399195;stroke-linecap:round;stroke-linejoin:round;stroke-miterlimit:10;stroke-dasharray:none;stroke-opacity:1"
       id="path6040"
       transform="matrix(1.3333333,0,0,1.3333333,0,4.2729659e-5)" /><path
       d="m 239.039,482.641 30,-32.641"
       style="fill:#ffffff;stroke:#000000;stroke-width:0.399195;stroke-linecap:round;stroke-linejoin:round;stroke-miterlimit:10;stroke-dasharray:none;stroke-opacity:1"
       id="path6044"
       transform="matrix(1.3333333,0,0,1.3333333,0,4.2729659e-5)" /><path
       d="m 269.039,450 v 5.52 l -6,-5.04 z"
       style="fill:#ffffff;fill-opacity:1;fill-rule:evenodd;stroke:#000000;stroke-width:0.399195;stroke-linecap:round;stroke-linejoin:round;stroke-miterlimit:10;stroke-dasharray:none;stroke-opacity:1"
       id="path6048"
       transform="matrix(1.3333333,0,0,1.3333333,0,4.2729659e-5)" /><path
       d="m 330.48,376.078 -24,30"
       style="fill:#ffffff;stroke:#000000;stroke-width:0.399195;stroke-linecap:round;stroke-linejoin:round;stroke-miterlimit:10;stroke-dasharray:none;stroke-opacity:1"
       id="path6052"
       transform="matrix(1.3333333,0,0,1.3333333,0,4.2729659e-5)" /><path
       d="m 306.48,406.078 -0.718,-5.519 6.476,5.043 z"
       style="fill:#ffffff;fill-opacity:1;fill-rule:evenodd;stroke:#000000;stroke-width:0.399195;stroke-linecap:round;stroke-linejoin:round;stroke-miterlimit:10;stroke-dasharray:none;stroke-opacity:1"
       id="path6056"
       transform="matrix(1.3333333,0,0,1.3333333,0,4.2729659e-5)" /><path
       d="M 331.199,482.641 306.48,452.398"
       style="fill:#ffffff;stroke:#000000;stroke-width:0.399195;stroke-linecap:round;stroke-linejoin:round;stroke-miterlimit:10;stroke-dasharray:none;stroke-opacity:1"
       id="path6060"
       transform="matrix(1.3333333,0,0,1.3333333,0,4.2729659e-5)" /><path
       d="m 306.48,452.398 5.758,0.481 -6.476,5.043 z"
       style="fill:#ffffff;fill-opacity:1;fill-rule:evenodd;stroke:#000000;stroke-width:0.399195;stroke-linecap:round;stroke-linejoin:round;stroke-miterlimit:10;stroke-dasharray:none;stroke-opacity:1"
       id="path6064"
       transform="matrix(1.3333333,0,0,1.3333333,0,4.2729659e-5)" /><path
       d="M 394.078,454.801 V 438"
       style="fill:#ffffff;stroke:#000000;stroke-width:0.399195;stroke-linecap:round;stroke-linejoin:round;stroke-miterlimit:10;stroke-dasharray:none;stroke-opacity:1"
       id="path6068"
       transform="matrix(1.3333333,0,0,1.3333333,0,4.2729659e-5)" /><path
       d="m 394.078,438 1.922,3.602 -1.922,4.078 -2.156,-3.602 z"
       style="fill:#ffffff;fill-opacity:1;fill-rule:evenodd;stroke:#000000;stroke-width:0.399195;stroke-linecap:round;stroke-linejoin:round;stroke-miterlimit:10;stroke-dasharray:none;stroke-opacity:1"
       id="path6072"
       transform="matrix(1.3333333,0,0,1.3333333,0,4.2729659e-5)" /><path
       d="m 451.922,477.602 h -36"
       style="fill:#ffffff;stroke:#000000;stroke-width:0.399195;stroke-linecap:round;stroke-linejoin:round;stroke-miterlimit:10;stroke-dasharray:none;stroke-opacity:1"
       id="path6076"
       transform="matrix(1.3333333,0,0,1.3333333,0,4.2729659e-5)" /><path
       d="M 415.922,477.602 420,473.52 v 7.921 z"
       style="fill:#ffffff;fill-opacity:1;fill-rule:evenodd;stroke:#000000;stroke-width:0.399195;stroke-linecap:round;stroke-linejoin:round;stroke-miterlimit:10;stroke-dasharray:none;stroke-opacity:1"
       id="path6080"
       transform="matrix(1.3333333,0,0,1.3333333,0,4.2729659e-5)" /><path
       d="M 501.359,472.078 V 457.199"
       style="fill:#ffffff;stroke:#000000;stroke-width:0.399195;stroke-linecap:round;stroke-linejoin:round;stroke-miterlimit:10;stroke-dasharray:0.96, 0.96;stroke-dashoffset:0;stroke-opacity:1"
       id="path6084"
       transform="matrix(1.3333333,0,0,1.3333333,0,4.2729659e-5)" /><path
       d="M 172.801,386.641 V 366.48"
       style="fill:#ffffff;stroke:#000000;stroke-width:0.399195;stroke-linecap:round;stroke-linejoin:round;stroke-miterlimit:10;stroke-dasharray:0.96, 0.96;stroke-dashoffset:0;stroke-opacity:1"
       id="path6088"
       transform="matrix(1.3333333,0,0,1.3333333,0,4.2729659e-5)" /><path
       d="M 269.039,429.602 H 202.801"
       style="fill:#ffffff;stroke:#000000;stroke-width:0.399195;stroke-linecap:round;stroke-linejoin:round;stroke-miterlimit:10;stroke-dasharray:0.96, 0.96;stroke-dashoffset:0;stroke-opacity:1"
       id="path6092"
       transform="matrix(1.3333333,0,0,1.3333333,0,4.2729659e-5)" /><path
       d="m 106.078,460.078 36.723,-16.797"
       style="fill:#ffffff;stroke:#000000;stroke-width:0.399195;stroke-linecap:round;stroke-linejoin:round;stroke-miterlimit:10;stroke-dasharray:none;stroke-opacity:1"
       id="path6096"
       transform="matrix(1.3333333,0,0,1.3333333,0,4.2729659e-5)" /><path
       d="m 142.801,443.281 -1.922,5.039 -3.598,-7.199 z"
       style="fill:#ffffff;fill-opacity:1;fill-rule:evenodd;stroke:#000000;stroke-width:0.399195;stroke-linecap:round;stroke-linejoin:round;stroke-miterlimit:10;stroke-dasharray:none;stroke-opacity:1"
       id="path6100"
       transform="matrix(1.3333333,0,0,1.3333333,0,4.2729659e-5)" /><path
       d="m 129.359,429.602 h 13.442"
       style="fill:#ffffff;stroke:#000000;stroke-width:0.399195;stroke-linecap:round;stroke-linejoin:round;stroke-miterlimit:10;stroke-dasharray:none;stroke-opacity:1"
       id="path6104"
       transform="matrix(1.3333333,0,0,1.3333333,0,4.2729659e-5)" /><path
       d="m 142.801,429.602 -3.84,4.078 v -7.918 z"
       style="fill:#ffffff;fill-opacity:1;fill-rule:evenodd;stroke:#000000;stroke-width:0.399195;stroke-linecap:round;stroke-linejoin:round;stroke-miterlimit:10;stroke-dasharray:none;stroke-opacity:1"
       id="path6108"
       transform="matrix(1.3333333,0,0,1.3333333,0,4.2729659e-5)" /></g><g
     id="g5962"
     inkscape:groupmode="layer"
     inkscape:label="database2_169"
     transform="matrix(1.3333333,0,0,1.3333333,-55.148398,-468.1513)"
     style="display:inline"><g
       id="g5964" /><path
       d="m 61.441,414.48 h 67.441 v 30.238 H 61.441 Z"
       style="fill:#b9d25f;fill-opacity:1;fill-rule:nonzero;stroke:#000000;stroke-width:0.399195;stroke-linecap:round;stroke-linejoin:round;stroke-miterlimit:10;stroke-dasharray:none;stroke-opacity:1"
       id="path6112" /><g
       id="g6114"><g
         id="g6116"
         clip-path="url(#clipPath6120)"><text
           transform="translate(62.160156,420.51623)"
           style="font-variant:normal;font-weight:normal;font-size:6.38672px;font-family:Cousine;-inkscape-font-specification:Cousine;writing-mode:lr-tb;fill:#000000;fill-opacity:1;fill-rule:nonzero;stroke:none"
           id="text6124"><tspan
             x="0 3.9916995 7.9833989 11.975098 15.966798 19.958496 23.950195 27.941896 31.933596 35.918907 39.910606 43.902306 47.894005 51.885704 55.877403 59.869102"
             y="0"
             sodipodi:role="line"
             id="tspan6122">FilesystemMLBase</tspan></text></g></g><g
       id="g6126"><g
         id="g6128"><path
           d="m 61.441,427.68 h 67.918"
           style="fill:none;stroke:#000000;stroke-width:0.399195;stroke-linecap:round;stroke-linejoin:round;stroke-miterlimit:10;stroke-dasharray:none;stroke-opacity:1"
           id="path6130" /></g></g><g
       id="g6132"><g
         id="g6134"
         clip-path="url(#clipPath6138)"><text
           transform="translate(62.160156,432.3861)"
           style="font-variant:normal;font-weight:normal;font-size:4.79004px;font-family:Cousine;-inkscape-font-specification:Cousine;writing-mode:lr-tb;fill:#000000;fill-opacity:1;fill-rule:nonzero;stroke:none"
           id="text6142"><tspan
             x="0 2.7925928 5.5899754 8.3825684 11.175161 13.967753 16.765137 19.55773 22.350323 25.142914 27.940298"
             y="0"
             sodipodi:role="line"
             id="tspan6140">SCHEMA_JSON</tspan></text></g></g><g
       id="g6144"><g
         id="g6146"
         clip-path="url(#clipPath6150)"><text
           transform="translate(62.160156,438.14782)"
           style="font-variant:normal;font-weight:normal;font-size:4.79004px;font-family:Cousine;-inkscape-font-specification:Cousine;writing-mode:lr-tb;fill:#000000;fill-opacity:1;fill-rule:nonzero;stroke:none"
           id="text6154"><tspan
             x="0 2.7925928 5.5899754 8.3825684 11.175161 13.967753 16.765137 19.55773 22.350323 25.142914 27.940298"
             y="0"
             sodipodi:role="line"
             id="tspan6152">SCHEMA_REPO</tspan></text></g></g><g
       id="g6156"
       style="fill:#ffffff"><g
         id="g6158"
         style="fill:#ffffff"><path
           d="m 69.359,460.078 h 47.52 v 11.281 h -47.52 z"
           style="fill:#ffffff;fill-opacity:1;fill-rule:nonzero;stroke:#000000;stroke-width:0.399195;stroke-linecap:round;stroke-linejoin:round;stroke-miterlimit:10;stroke-dasharray:none;stroke-opacity:1"
           id="path6160" /></g></g><g
       id="g6162"><g
         id="g6164"
         clip-path="url(#clipPath6168)"><text
           transform="translate(70.320312,466.1178)"
           style="font-variant:normal;font-weight:normal;font-size:6.38672px;font-family:Cousine;-inkscape-font-specification:Cousine;writing-mode:lr-tb;fill:#000000;fill-opacity:1;fill-rule:nonzero;stroke:none"
           id="text6172"><tspan
             x="0 3.9916995 7.9833989 11.975098 15.966798 19.958496 23.950195 27.941896 31.933596 35.918907 39.910606"
             y="0"
             sodipodi:role="line"
             id="tspan6170">AiidaMLBase</tspan></text></g></g><g
       id="g6174"
       style="fill:#faeb5a"><g
         id="g6176"
         style="fill:#faeb5a"><path
           d="M 49.441,481.922 H 136.8 v 11.281 H 49.441 Z"
           style="fill:#faeb5a;fill-opacity:1;fill-rule:nonzero;stroke:#000000;stroke-width:0.399195;stroke-linecap:round;stroke-linejoin:round;stroke-miterlimit:10;stroke-dasharray:none;stroke-opacity:1"
           id="path6178" /></g></g><g
       id="g6180"><g
         id="g6182"
         clip-path="url(#clipPath6186)"><text
           transform="translate(50.160156,487.95764)"
           style="font-variant:normal;font-weight:normal;font-size:6.38672px;font-family:Cousine;-inkscape-font-specification:Cousine;writing-mode:lr-tb;fill:#000000;fill-opacity:1;fill-rule:nonzero;stroke:none"
           id="text6190"><tspan
             x="0 3.9916995 7.9833989 11.975098 15.966798 19.958496 23.950195 27.941896 31.933596 35.918907 39.910606 43.902306 47.894005 51.885704 55.877403 59.869102 63.860802 67.852501 71.8442 75.835899 79.827599"
             y="0"
             sodipodi:role="line"
             id="tspan6188">aiida_jutools.ml.base</tspan></text></g></g><g
       id="g6194"
       style="fill:#b9b9b9"><path
         d="m 142.801,386.641 h 59.52 v 86.16 h -59.52 z"
         style="fill:#b9b9b9;fill-opacity:1;fill-rule:nonzero;stroke:#000000;stroke-width:0.399195;stroke-linecap:round;stroke-linejoin:round;stroke-miterlimit:10;stroke-dasharray:none;stroke-opacity:1"
         id="path6196" /></g><text
       style="font-variant:normal;font-weight:normal;font-size:6.38672px;font-family:Cousine;-inkscape-font-specification:Cousine;writing-mode:lr-tb;fill:#000000;fill-opacity:1;fill-rule:nonzero;stroke:none"
       id="text6200"
       x="143.76172"
       y="392.67639"><tspan
         x="143.76172 147.75342 151.74512 155.73682 159.72852 163.72021"
         y="392.67639"
         sodipodi:role="line"
         id="tspan6198">MLBase</tspan></text><g
       id="g6202"><path
         d="m 142.801,398.641 h 60"
         style="fill:none;stroke:#000000;stroke-width:0.399195;stroke-linecap:round;stroke-linejoin:round;stroke-miterlimit:10;stroke-dasharray:none;stroke-opacity:1"
         id="path6204" /></g><g
       id="g6206"><g
         id="g6208"
         clip-path="url(#clipPath6212)"><text
           transform="translate(143.76172,403.34704)"
           style="font-variant:normal;font-weight:normal;font-size:4.79004px;font-family:Cousine;-inkscape-font-specification:Cousine;writing-mode:lr-tb;fill:#000000;fill-opacity:1;fill-rule:nonzero;stroke:none"
           id="text6216"><tspan
             x="0 2.7925928 5.5899754 8.3825684 11.175161 13.967753 16.765137 19.55773 22.350323 25.142914 27.940298 30.732891 33.525482 36.322865 39.115459 41.908051 44.700645 47.498028 50.290619 53.083214"
             y="0"
             sodipodi:role="line"
             id="tspan6214">create_dataset_entry</tspan></text></g></g><text
       style="font-variant:normal;font-weight:normal;font-size:4.79004px;font-family:Cousine;-inkscape-font-specification:Cousine;writing-mode:lr-tb;fill:#000000;fill-opacity:1;fill-rule:nonzero;stroke:none"
       id="text6242"
       x="143.76172"
       y="408.86658"><tspan
         x="143.76172 146.55431 149.3517 152.14429 154.93687 157.72948 160.52686 163.31944 166.11205 168.90463 171.70201 174.49461 177.2872 180.08458 182.87718 185.66977 188.46237"
         y="408.86658"
         sodipodi:role="line"
         id="tspan6220">create_experiment</tspan><tspan
         x="143.76172 146.55431 149.3517 152.14429 154.93687 157.72948 160.52686 163.31944 166.11205 168.90463 171.70201 174.49461 177.2872 180.08458"
         y="414.38611"
         sodipodi:role="line"
         id="tspan6222">create_project</tspan><tspan
         x="143.76172 146.55431 149.3517 152.14429 154.93687 157.72948 160.52686 163.31944 166.11205 168.90463 171.70201 174.49461 177.2872 180.08458"
         y="420.14783"
         sodipodi:role="line"
         id="tspan6224">delete_dataset</tspan><tspan
         x="143.76172 146.55431 149.3517 152.14429 154.93687 157.72948 160.52686 163.31944 166.11205 168.90463 171.70201 174.49461 177.2872 180.08458 182.87718 185.66977 188.46237"
         y="425.66736"
         sodipodi:role="line"
         id="tspan6226">delete_experiment</tspan><tspan
         x="143.76172 146.55431 149.3517 152.14429 154.93687 157.72948 160.52686 163.31944 166.11205 168.90463 171.70201 174.49461 177.2872 180.08458"
         y="431.18689"
         sodipodi:role="line"
         id="tspan6228">delete_project</tspan><tspan
         x="143.76172 146.55431 149.3517 152.14429 154.93687 157.72948 160.52686 163.31944 166.11205 168.90463 171.70201 174.49461 177.2872"
         y="436.94861"
         sodipodi:role="line"
         id="tspan6230">list_datasets</tspan><tspan
         x="143.76172 146.55431 149.3517 152.14429 154.93687 157.72948 160.52686 163.31944 166.11205 168.90463 171.70201 174.49461 177.2872 180.08458 182.87718 185.66977"
         y="442.46814"
         sodipodi:role="line"
         id="tspan6232">list_experiments</tspan><tspan
         x="143.76172 146.55431 149.3517 152.14429 154.93687 157.72948 160.52686 163.31944 166.11205 168.90463 171.70201 174.49461 177.2872"
         y="447.98767"
         sodipodi:role="line"
         id="tspan6234">list_projects</tspan><tspan
         x="143.76172 146.55431 149.3517 152.14429 154.93687 157.72948 160.52686 163.31944 166.11205 168.90463 171.70201 174.49461"
         y="453.5072"
         sodipodi:role="line"
         id="tspan6236">load_dataset</tspan><tspan
         x="143.76172 146.55431 149.3517 152.14429 154.93687 157.72948 160.52686 163.31944"
         y="459.26892"
         sodipodi:role="line"
         id="tspan6238">finalize</tspan><tspan
         x="143.76172 146.55431 149.3517 152.14429 154.93687 157.72948 160.52686 163.31944"
         y="464.78845"
         sodipodi:role="line"
         id="tspan6240">rollback</tspan></text><g
       id="g6244"
       style="fill:#023d6b"><path
         d="m 133.199,354.961 h 79.441 v 11.281 h -79.441 z"
         style="fill:#023d6b;fill-opacity:1;fill-rule:nonzero;stroke:#000000;stroke-width:0.399195;stroke-linecap:round;stroke-linejoin:round;stroke-miterlimit:10;stroke-dasharray:none;stroke-opacity:1"
         id="path6246" /></g><g
       id="g6248"
       style="fill:#ffffff"><g
         id="g6250"
         clip-path="url(#clipPath6254)"
         style="fill:#ffffff"><text
           transform="translate(134.16016,361.23889)"
           style="font-variant:normal;font-weight:normal;font-size:6.38672px;font-family:Cousine;-inkscape-font-specification:Cousine;writing-mode:lr-tb;fill:#ffffff;fill-opacity:1;fill-rule:nonzero;stroke:none"
           id="text6258"><tspan
             x="0 3.9916995 7.9833989 11.975098 15.966798 19.958496 23.950195 27.941896 31.933596 35.918907 39.910606 43.902306 47.894005 51.885704 55.877403 59.869102 63.860802 67.852501 71.8442"
             y="0"
             sodipodi:role="line"
             id="tspan6256"
             style="font-style:normal;font-variant:normal;font-weight:normal;font-stretch:normal;font-family:Cousine;-inkscape-font-specification:Cousine">masci_tools.ml.base</tspan></text></g></g><g
       id="g6262"
       style="fill:#b9d25f"><path
         d="m 211.922,482.641 h 43.441 v 11.281 h -43.441 z"
         style="fill:#b9d25f;fill-opacity:1;fill-rule:nonzero;stroke:#000000;stroke-width:0.399195;stroke-linecap:round;stroke-linejoin:round;stroke-miterlimit:10;stroke-dasharray:none;stroke-opacity:1"
         id="path6264" /></g><text
       style="font-variant:normal;font-weight:normal;font-size:6.38672px;font-family:Cousine;-inkscape-font-specification:Cousine;writing-mode:lr-tb;fill:#000000;fill-opacity:1;fill-rule:nonzero;stroke:none"
       id="text6268"
       x="212.64062"
       y="488.91858"><tspan
         x="212.64062 216.63232 220.62402 224.61572 228.60742 232.59912 236.59082 240.58252 244.57422 248.55952"
         y="488.91858"
         sodipodi:role="line"
         id="tspan6266">FeatureSet</tspan></text><g
       id="g6270"
       style="fill:#b9d25f"><path
         d="m 216,364.559 h 35.52 V 375.84 H 216 Z"
         style="fill:#b9d25f;fill-opacity:1;fill-rule:nonzero;stroke:#000000;stroke-width:0.399195;stroke-linecap:round;stroke-linejoin:round;stroke-miterlimit:10;stroke-dasharray:none;stroke-opacity:1"
         id="path6272" /></g><g
       id="g6274"><g
         id="g6276"
         clip-path="url(#clipPath6280)"><text
           transform="translate(216.71875,370.59826)"
           style="font-variant:normal;font-weight:normal;font-size:6.38672px;font-family:Cousine;-inkscape-font-specification:Cousine;writing-mode:lr-tb;fill:#000000;fill-opacity:1;fill-rule:nonzero;stroke:none"
           id="text6284"><tspan
             x="0 3.9916995 7.9833989 11.975098 15.966798 19.958496 23.950195 27.941896"
             y="0"
             sodipodi:role="line"
             id="tspan6282">ModelSet</tspan></text></g></g><g
       id="g6288"
       style="fill:#b9b9b9"><path
         d="m 269.039,392.879 h 37.199 v 73.441 h -37.199 z"
         style="fill:#b9b9b9;fill-opacity:1;fill-rule:nonzero;stroke:#000000;stroke-width:0.399195;stroke-linecap:round;stroke-linejoin:round;stroke-miterlimit:10;stroke-dasharray:none;stroke-opacity:1"
         id="path6290" /></g><text
       style="font-variant:normal;font-weight:normal;font-size:6.38672px;font-family:Cousine;-inkscape-font-specification:Cousine;writing-mode:lr-tb;fill:#000000;fill-opacity:1;fill-rule:nonzero;stroke:none"
       id="text6294"
       x="269.76172"
       y="399.15686"><tspan
         x="269.76172 273.75342 277.74512 281.73682 285.72852 289.72021 293.71191"
         y="399.15686"
         sodipodi:role="line"
         id="tspan6292">DataSet</tspan></text><g
       id="g6296"><path
         d="M 269.039,404.879 H 306.48"
         style="fill:none;stroke:#000000;stroke-width:0.399195;stroke-linecap:round;stroke-linejoin:round;stroke-miterlimit:10;stroke-dasharray:none;stroke-opacity:1"
         id="path6298" /></g><text
       style="font-variant:normal;font-weight:normal;font-size:4.79004px;font-family:Cousine;-inkscape-font-specification:Cousine;writing-mode:lr-tb;fill:#000000;fill-opacity:1;fill-rule:nonzero;stroke:none"
       id="text6312"
       x="269.76172"
       y="409.58923"><tspan
         x="269.76172 272.55432 275.35168 278.14429 280.93689 283.72946 286.52686"
         y="409.58923"
         sodipodi:role="line"
         id="tspan6300">project</tspan><tspan
         x="269.76172 272.55432 275.35168 278.14429 280.93689 283.72946 286.52686 289.31946 292.11203 294.90463"
         y="415.34705"
         sodipodi:role="line"
         id="tspan6302">experiment</tspan><tspan
         x="269.76172 272.55432 275.35168 278.14429"
         y="420.86658"
         sodipodi:role="line"
         id="tspan6304">type</tspan><tspan
         x="269.76172 272.55432 275.35168 278.14429"
         y="426.38611"
         sodipodi:role="line"
         id="tspan6306">name</tspan><tspan
         x="269.76172 272.55432 275.35168 278.14429 280.93689 283.72946 286.52686 289.31946 292.11203 294.90463 297.70203"
         y="432.14783"
         sodipodi:role="line"
         id="tspan6308">description</tspan><tspan
         x="269.76172 272.55432 275.35168 278.14429 280.93689"
         y="437.66736"
         sodipodi:role="line"
         id="tspan6310">index</tspan></text><g
       id="g6314"><path
         d="M 269.039,444.719 H 306.48"
         style="fill:none;stroke:#000000;stroke-width:0.399195;stroke-linecap:round;stroke-linejoin:round;stroke-miterlimit:10;stroke-dasharray:none;stroke-opacity:1"
         id="path6316" /></g><text
       style="font-variant:normal;font-weight:normal;font-size:4.79004px;font-family:Cousine;-inkscape-font-specification:Cousine;writing-mode:lr-tb;fill:#000000;fill-opacity:1;fill-rule:nonzero;stroke:none"
       id="text6324"
       x="269.76172"
       y="449.66736"><tspan
         x="269.76172 272.55432 275.35168 278.14429 280.93689 283.72946"
         y="449.66736"
         sodipodi:role="line"
         id="tspan6318">create</tspan><tspan
         x="269.76172 272.55432 275.35168 278.14429"
         y="455.18689"
         sodipodi:role="line"
         id="tspan6320">load</tspan><tspan
         x="269.76172 272.55432 275.35168 278.14429 280.93689 283.72946 286.52686 289.31946 292.11203 294.90463 297.70203 300.4946"
         y="460.70642"
         sodipodi:role="line"
         id="tspan6322">load_samples</tspan></text><g
       id="g6326"
       style="fill:#b9d25f"><path
         d="m 317.281,364.559 h 35.52 v 11.281 h -35.52 z"
         style="fill:#b9d25f;fill-opacity:1;fill-rule:nonzero;stroke:#000000;stroke-width:0.399195;stroke-linecap:round;stroke-linejoin:round;stroke-miterlimit:10;stroke-dasharray:none;stroke-opacity:1"
         id="path6328" /></g><g
       id="g6330"><g
         id="g6332"
         clip-path="url(#clipPath6336)"><text
           transform="translate(318,370.59826)"
           style="font-variant:normal;font-weight:normal;font-size:6.38672px;font-family:Cousine;-inkscape-font-specification:Cousine;writing-mode:lr-tb;fill:#000000;fill-opacity:1;fill-rule:nonzero;stroke:none"
           id="text6340"><tspan
             x="0 3.9916995 7.9833989 11.975098 15.966798 19.958496 23.950195 27.941896"
             y="0"
             sodipodi:role="line"
             id="tspan6338">LabelSet</tspan></text></g></g><g
       id="g6342"
       style="fill:#b9d25f"><g
         id="g6344"
         style="fill:#b9d25f"><path
           d="m 310.078,482.641 h 51.602 v 11.281 h -51.602 z"
           style="fill:#b9d25f;fill-opacity:1;fill-rule:nonzero;stroke:#000000;stroke-width:0.399195;stroke-linecap:round;stroke-linejoin:round;stroke-miterlimit:10;stroke-dasharray:none;stroke-opacity:1"
           id="path6346" /></g></g><g
       id="g6348"><g
         id="g6350"
         clip-path="url(#clipPath6354)"><text
           transform="translate(311.03906,488.91858)"
           style="font-variant:normal;font-weight:normal;font-size:6.38672px;font-family:Cousine;-inkscape-font-specification:Cousine;writing-mode:lr-tb;fill:#000000;fill-opacity:1;fill-rule:nonzero;stroke:none"
           id="text6358"><tspan
             x="0 3.9916995 7.9833989 11.975098 15.966798 19.958496 23.950195 27.941896 31.933596 35.918907 39.910606 43.902306"
             y="0"
             sodipodi:role="line"
             id="tspan6356">StructureSet</tspan></text></g></g><g
       id="g6362"
       style="fill:#b9b9b9"><path
         d="m 373.922,412.801 h 39.602 v 24.719 h -39.602 z"
         style="fill:#b9b9b9;fill-opacity:1;fill-rule:nonzero;stroke:#000000;stroke-width:0.399195;stroke-linecap:round;stroke-linejoin:round;stroke-miterlimit:10;stroke-dasharray:none;stroke-opacity:1"
         id="path6364" /></g><text
       style="font-variant:normal;font-weight:normal;font-size:6.38672px;font-family:Cousine;-inkscape-font-specification:Cousine;writing-mode:lr-tb;fill:#000000;fill-opacity:1;fill-rule:nonzero;stroke:none"
       id="text6368"
       x="374.87891"
       y="419.07874"><tspan
         x="374.87891 378.87061 382.8623 386.854 390.8457 394.8374 398.8291 402.8208 406.8125"
         y="419.07874"
         sodipodi:role="line"
         id="tspan6366">Extractor</tspan></text><g
       id="g6370"><path
         d="M 373.922,426.48 H 414"
         style="fill:none;stroke:#000000;stroke-width:0.399195;stroke-linecap:round;stroke-linejoin:round;stroke-miterlimit:10;stroke-dasharray:none;stroke-opacity:1"
         id="path6372" /></g><g
       id="g6374"><g
         id="g6376"
         clip-path="url(#clipPath6380)"><text
           transform="translate(374.87891,431.18688)"
           style="font-variant:normal;font-weight:normal;font-size:4.79004px;font-family:Cousine;-inkscape-font-specification:Cousine;writing-mode:lr-tb;fill:#000000;fill-opacity:1;fill-rule:nonzero;stroke:none"
           id="text6384"><tspan
             x="0 2.7925928 5.5899754 8.3825684 11.175161 13.967753 16.765137"
             y="0"
             sodipodi:role="line"
             id="tspan6382">extract</tspan></text></g></g><g
       id="g6388"
       style="fill:#b9d25f"><path
         d="m 372.719,454.801 h 42.719 v 45.602 h -42.719 z"
         style="fill:#b9d25f;fill-opacity:1;fill-rule:nonzero;stroke:#000000;stroke-width:0.399195;stroke-linecap:round;stroke-linejoin:round;stroke-miterlimit:10;stroke-dasharray:none;stroke-opacity:1"
         id="path6390" /></g><text
       style="font-variant:normal;font-weight:normal;font-size:6.38672px;font-family:Cousine;-inkscape-font-specification:Cousine;writing-mode:lr-tb;fill:#000000;fill-opacity:1;fill-rule:nonzero;stroke:none"
       id="text6394"
       x="373.67969"
       y="460.83655"><tspan
         x="373.67969 377.67139 381.66309 385.65479 389.64648 393.63818 397.62988"
         y="460.83655"
         sodipodi:role="line"
         id="tspan6392">Indexer</tspan></text><g
       id="g6396"><path
         d="m 372.719,467.281 h 43.203"
         style="fill:none;stroke:#000000;stroke-width:0.399195;stroke-linecap:round;stroke-linejoin:round;stroke-miterlimit:10;stroke-dasharray:none;stroke-opacity:1"
         id="path6398" /></g><text
       style="font-variant:normal;font-weight:normal;font-size:4.79004px;font-family:Cousine;-inkscape-font-specification:Cousine;writing-mode:lr-tb;fill:#000000;fill-opacity:1;fill-rule:nonzero;stroke:none"
       id="text6406"
       x="373.67969"
       y="471.98767"><tspan
         x="373.67969 376.47229 379.26965 382.06226 384.85486"
         y="471.98767"
         sodipodi:role="line"
         id="tspan6400">index</tspan><tspan
         x="373.67969 376.47229 379.26965 382.06226 384.85486 387.64743 390.44482 393.23743 396.03 398.8226 401.62"
         y="477.5072"
         sodipodi:role="line"
         id="tspan6402">primary_key</tspan><tspan
         x="373.67969 376.47229 379.26965 382.06226 384.85486 387.64743 390.44482 393.23743 396.03 398.8226 401.62 404.41257 407.20517 410.00256"
         y="483.26892"
         sodipodi:role="line"
         id="tspan6404">secondary_keys</tspan></text><g
       id="g6408"><path
         d="m 372.719,489.84 h 43.203"
         style="fill:none;stroke:#000000;stroke-width:0.399195;stroke-linecap:round;stroke-linejoin:round;stroke-miterlimit:10;stroke-dasharray:none;stroke-opacity:1"
         id="path6410" /></g><g
       id="g6412"><g
         id="g6414"
         clip-path="url(#clipPath6418)"><text
           transform="translate(373.67969,494.78844)"
           style="font-variant:normal;font-weight:normal;font-size:4.79004px;font-family:Cousine;-inkscape-font-specification:Cousine;writing-mode:lr-tb;fill:#000000;fill-opacity:1;fill-rule:nonzero;stroke:none"
           id="text6422"><tspan
             x="0 2.7925928 5.5899754 8.3825684 11.175161 13.967753 16.765137 19.55773 22.350323 25.142914 27.940298 30.732891"
             y="0"
             sodipodi:role="line"
             id="tspan6420">create_index</tspan></text></g></g><g
       id="g6426"
       style="fill:#b9d25f"><path
         d="m 447.121,420.961 h 107.281 v 11.281 H 447.121 Z"
         style="fill:#b9d25f;fill-opacity:1;fill-rule:nonzero;stroke:#000000;stroke-width:0.399195;stroke-linecap:round;stroke-linejoin:round;stroke-miterlimit:10;stroke-dasharray:none;stroke-opacity:1"
         id="path6428" /></g><text
       style="font-variant:normal;font-weight:normal;font-size:6.38672px;font-family:Cousine;-inkscape-font-specification:Cousine;writing-mode:lr-tb;fill:#000000;fill-opacity:1;fill-rule:nonzero;stroke:none"
       id="text6432"
       x="447.83984"
       y="426.9967"><tspan
         x="447.83984 451.83154 455.82324 459.81494 463.80664 467.79834 471.79004 475.78174 479.77344 483.75876 487.75046 491.74216 495.73386 499.72556 503.71725 507.70895 511.70065 515.69232 519.68402 523.67572 527.66742 531.65912 535.65082 539.64252 543.63422 547.62592"
         y="426.9967"
         sodipodi:role="line"
         id="tspan6430">KkrSingleImpurityExtractor</tspan></text><g
       id="g6434"
       style="fill:#b9d25f"><path
         d="m 451.922,472.078 h 99.359 v 11.281 h -99.359 z"
         style="fill:#b9d25f;fill-opacity:1;fill-rule:nonzero;stroke:#000000;stroke-width:0.399195;stroke-linecap:round;stroke-linejoin:round;stroke-miterlimit:10;stroke-dasharray:none;stroke-opacity:1"
         id="path6436" /></g><text
       style="font-variant:normal;font-weight:normal;font-size:6.38672px;font-family:Cousine;-inkscape-font-specification:Cousine;writing-mode:lr-tb;fill:#000000;fill-opacity:1;fill-rule:nonzero;stroke:none"
       id="text6440"
       x="452.64062"
       y="478.1178"><tspan
         x="452.64062 456.63232 460.62402 464.61572 468.60742 472.59912 476.59082 480.58252 484.57422 488.55954 492.55124 496.54294 500.53464 504.52634 508.51804 512.5097 516.5014 520.4931 524.4848 528.4765 532.4682 536.4599 540.4516 544.4433"
         y="478.1178"
         sodipodi:role="line"
         id="tspan6438">KkrSingleImpurityIndexer</tspan></text><g
       id="g6442"
       style="fill:#eb5f73"><path
         d="M 427.441,445.68 H 574.8 v 11.281 H 427.441 Z"
         style="fill:#eb5f73;fill-opacity:1;fill-rule:nonzero;stroke:#000000;stroke-width:0.399195;stroke-linecap:round;stroke-linejoin:round;stroke-miterlimit:10;stroke-dasharray:none;stroke-opacity:1"
         id="path6444" /></g><g
       id="g6446"><g
         id="g6448"
         clip-path="url(#clipPath6452)"><text
           transform="translate(428.39844,451.71545)"
           style="font-variant:normal;font-weight:normal;font-size:6.38672px;font-family:Cousine;-inkscape-font-specification:Cousine;writing-mode:lr-tb;fill:#000000;fill-opacity:1;fill-rule:nonzero;stroke:none"
           id="text6456"><tspan
             x="0 3.9916995 7.9833989 11.975098 15.966798 19.958496 23.950195 27.941896 31.933596 35.918907 39.910606 43.902306 47.894005 51.885704 55.877403 59.869102 63.860802 67.852501 71.8442 75.835899 79.827599 83.819298 87.810997 91.802696 95.794395 99.786095 103.77141 107.76311 111.75481 115.74651 119.7382 123.7299 127.7216 131.7133 135.705 139.6967"
             y="0"
             sodipodi:role="line"
             id="tspan6454">aiida_kkr_ml.structure_featurization</tspan></text></g></g></g><g
     inkscape:groupmode="layer"
     id="layer5"
     inkscape:label="focus on repository pattern"
     style="display:none"><rect
       style="opacity:0.95;fill:url(#linearGradient14023);fill-opacity:1;stroke:none;stroke-width:0.999997;stroke-miterlimit:4;stroke-dasharray:4.00001, 4.00001;stroke-dashoffset:0;stroke-opacity:0.67042"
       id="rect13996"
       width="720.03485"
       height="202.7899"
       x="55.658478"
       y="468.65134"
       ry="8.4914112"
       rx="8.4914103"
       transform="translate(-55.148398,-468.15134)" /></g><g
     inkscape:groupmode="layer"
     id="g11682"
     inkscape:label="focus on stragegy pattern"
     style="display:none"><rect
       style="opacity:0.95;fill:url(#linearGradient12388);fill-opacity:1;stroke:none;stroke-width:0.999997;stroke-miterlimit:4;stroke-dasharray:4.00001, 4.00001;stroke-dashoffset:0;stroke-opacity:0.67042"
       id="rect11680"
       width="720.03485"
       height="202.7899"
       x="55.658478"
       y="468.65134"
       ry="8.4914112"
       rx="8.4914103"
       transform="translate(-55.148398,-468.15134)" /></g></svg>
